<svg xmlns="http://www.w3.org/2000/svg" width="20.636" height="20.652" viewBox="0 0 20.636 20.652">
  <path id="Path_1287" data-name="Path 1287" d="M2.141,19.256c3.722-3.332,7.995-4.328,12.643-5.521l.445-4.018-4.3-4.3-4.018.446c-1.192,4.648-2.189,8.92-5.52,12.643L0,17.116c2.828-3.3,3.89-6.953,5.3-13.081l6.364-.706,5.657,5.657-.707,6.364c-6.128,1.415-9.782,2.475-13.081,5.3Zm5.285-6.03h0a2,2,0,1,1,1.382.554A2,2,0,0,1,7.425,13.226ZM13.082,1.914,13.294.429a.5.5,0,0,1,.848-.284l6.348,6.346a.5.5,0,0,1-.277.849l-1.474.229Z" transform="translate(0 0)"/>
</svg>
